<svg version="1.1" xmlns="http://www.w3.org/2000/svg" width="500px" height="392.896px">
<path fill="#BF9C66" d="M251.769,213.947c44.833-3.058,81.729-34.945,92.313-77.277v86.813c0,0-6.285-25.674-33.762-18.461
	c-17.101,4.486-30.033,11.919-58.551,8.929V213.947 M344.082,86.825V0c0,0-6.285,25.689-33.762,18.473
	c-17.101-4.485-30.033-11.921-58.551-8.932l-0.003,0.006C296.602,12.602,333.499,44.496,344.082,86.825 M193.187,111.747
	c0-43.132,30.314-79.179,70.801-88.009c-6.212-1.354-12.67-2.081-19.29-2.081c-49.758,0-90.086,40.335-90.086,90.09
	c0,49.756,40.328,90.09,90.086,90.09c6.62,0,13.078-0.72,19.29-2.077C223.501,190.927,193.187,154.88,193.187,111.747"/>
<path d="M6.601,295.641c4.632-4.972,10.964-7.448,19.345-7.569c7.021-0.108,13.121,0.782,15.806,1.172
	c0.648,0.096,1.082,0.291,1.109,0.965c0,0-0.151,10.122-0.151,10.125c-0.024,0.656-0.05,1.636-0.822,1.661
	c-0.816,0.027-0.851-0.885-0.875-1.617c-0.087-2.442-1.199-4.91-2.773-6.149c-2.053-1.646-6.882-3.324-12.63-3.126
	c-6.532,0.231-11.188,1.889-14.24,5.07c-4.786,4.916-5.234,11.124-5.049,16.547c0.396,11.275,9.263,22.641,23.423,22.146
	c4.063-0.14,8.175-0.656,10.726-3.457c1.236-1.391,1.938-4.137,2.087-5.256c0.08-0.538,0.182-1.212,0.891-1.236
	c0.229-0.007,0.757,0.093,0.797,1.239c0.019,0.482-0.553,6.045-1.122,8.252c-0.361,1.305-0.522,1.503-1.759,2.105
	c-2.696,1.193-7.708,1.756-11.495,1.886c-9.167,0.322-15.972-1.65-21.404-6.198c-5.327-4.452-8.171-10.763-8.45-18.755
	C-0.161,308.437,1.475,301.128,6.601,295.641 M87.793,335.641c2.881,0,17.236-1.039,17.236-21.49
	c0-15.907-9.854-23.147-19.015-23.147c-11.257,0-18.25,7.899-18.25,20.606C67.765,325.757,76.001,335.641,87.793,335.641
	 M86.463,288.232c15.122,0,25.281,9.699,25.281,24.131c0,15.242-10.793,26.305-25.664,26.305c-17.153,0-24.969-13.104-24.969-25.271
	C61.112,303.663,67.994,288.232,86.463,288.232 M215.543,292.261c3.345,0.118,3.858,1.274,4.235,2.124
	c0.278,0.678,0.35,1.676,0.35,2.155c0,0.946,0.448,1.149,0.815,1.149c0.542,0,0.689-0.692,0.746-0.955
	c0.006-0.027,0.825-7.21,0.825-7.21c0-0.303-0.121-0.556-0.325-0.727c-0.16-0.123-0.343-0.173-0.507-0.142
	c-1.849,0.488-3.32,0.454-3.333,0.454h-24.313c-0.359,0-1.324,0.006-1.324,0.819c0,0.402,0.344,0.689,0.816,0.689
	c0.545,0,1.596,0.068,2.09,0.188c1.843,0.381,2.18,1.132,2.313,3.343c0,0.024,0.004,38.931,0.004,39.048
	c0,1.797-0.541,2.811-1.604,3.018c-0.705,0.158-1.392,0.247-1.85,0.247c-0.563,0-0.815,0.347-0.815,0.693
	c0,0.822,0.964,0.822,1.329,0.822h24.483c2.479,0,3.23,0,3.731-1.89c0.334-1.379,0.838-5.738,0.838-6.242
	c0-0.47,0-1.261-0.689-1.261c-0.655,0-0.779,0.692-0.875,1.202c-0.43,2.532-1.156,3.707-2.681,4.347
	c-1.589,0.684-4.341,0.684-5.985,0.684c-6.251,0-9.442-0.872-9.621-4.919v-16.271l11.792,0.003c2.427,0,2.764,1.162,3.011,2.01
	c0.241,0.772,0.241,1.369,0.241,2.01c0,0.531,0.297,0.875,0.748,0.875c0.684,0,0.705-0.525,0.736-1.188l0.779-7.924
	c0-0.795-0.474-0.856-0.619-0.856c-0.367,0-0.634,0.303-1.032,0.757l-0.157,0.177c-0.479,0.535-1.012,0.788-2.758,0.788h-12.741
	v-18.019H215.543z M242.825,300.658c0.148,4.294,2.662,7.974,9.801,13.434l2.943,2.247c5.809,4.465,7.648,7.003,7.791,11.137
	c0.143,4.047-2.938,8.051-8.703,8.255c-2.354,0.084-9.248-0.287-10.596-5.871c-0.21-0.854-0.238-1.719-0.257-2.281
	c-0.012-0.355-0.033-1.002-0.785-0.978c-0.692,0.024-0.745,0.866-0.77,1.317c0,0.016-0.08,6.758-0.08,6.758
	c0.062,1.707,0.123,2.171,1.215,2.659h0.003c2.442,1.098,6.566,1.527,9.974,1.407c3.847-0.137,7.677-1.383,10.256-3.12
	c4.644-3.135,5.546-7.643,5.432-10.963c-0.17-4.916-2.705-8.892-10.777-14.804l-1.824-1.332c-6.308-4.813-8.4-6.526-8.515-9.888
	c-0.151-4.223,3.286-7.451,7.775-7.608c5.349-0.183,8.75,1.947,9.307,2.894c0.371,0.609,0.81,2.264,0.902,3.024
	c0.08,0.494,0.18,1.101,0.851,1.075c0.748-0.024,0.717-1.178,0.692-1.796c0,0.009,0.009-6.73,0.009-6.73
	c-0.027-0.758-0.686-0.733-0.968-0.724c-0.497,0.019-0.982-0.124-2.167-0.244c-2.315-0.278-5.277-0.448-7.519-0.371
	C248.643,288.439,242.577,293.528,242.825,300.658 M359.426,335.641c2.878,0,17.245-1.039,17.245-21.49
	c0-15.907-9.862-23.147-19.023-23.147c-11.26,0-18.253,7.899-18.253,20.606C339.395,325.757,347.631,335.641,359.426,335.641
	 M358.093,288.232c15.125,0,25.284,9.699,25.284,24.131c0,15.242-10.796,26.305-25.664,26.305
	c-17.156,0-24.969-13.104-24.969-25.271C332.745,303.663,339.626,288.232,358.093,288.232 M407.249,292.285
	c-6.743,4.233-10.762,12.145-10.762,21.157c0,8.642,4.13,15.282,7.67,18.343c5.219,4.57,12.317,6.883,21.104,6.883
	c3.96,0,9.615-0.761,13.628-2.897c0.952-0.568,0.98-0.896,0.98-3.7v-13.725c0.12-2.143,0.724-3.049,2.226-3.326
	c-0.003,0,1.534-0.177,1.534-0.177c0.476,0,0.822-0.294,0.822-0.692c0-0.811-0.931-0.811-1.333-0.811h-13.405
	c-0.396,0-1.326,0-1.326,0.811c0,0.398,0.346,0.692,0.825,0.692c0.575,0,1.62,0.059,2.077,0.173
	c2.301,0.631,2.632,1.064,2.632,6.255v10.8c0,0.931-0.353,1.549-1.116,1.95c-1.537,0.897-4.669,1.299-7.093,1.299
	c-6.341,0-11.869-2.257-16.438-6.712c-2.301-2.235-6.653-8.731-6.653-17.385c0-6.886,2.313-12.831,6.181-15.9
	c4.606-3.624,9.17-4.125,13.411-4.125c7.865,0,13.044,2.517,14.683,5.015c1.066,1.694,1.259,3.661,1.286,4.038
	c0.059,0.557,0.137,1.24,0.748,1.24c0.878,0,0.878-0.946,0.878-1.639c0,0.006,0.442-9.013,0.442-9.013
	c0-0.371-0.183-0.808-1.032-0.888c-1.7-0.071-3.89-0.343-5.107-0.627c-0.554-0.121-5.436-1.092-9.798-1.092
	C419.393,288.232,413.008,288.693,407.249,292.285 M479.444,316.139l-6.227-17.645l-5.791,17.645H479.444z M466.838,319.038
	c0,0-4.808,15.085-4.808,15.901c0,1.109,1.289,1.523,2.1,1.523h0.646c0.813,0,0.937,0.437,0.937,0.689
	c0,0.313-0.164,0.826-1.259,0.826h-12.141c-0.455,0-1.516,0-1.516-0.826c0-0.401,0.365-0.689,0.885-0.689
	c0,0,1.793-0.123,1.803-0.126c2.644-0.337,3.867-2.372,5.089-5.761l14.447-39.66c0.767-2.111,1.07-2.681,1.691-2.681
	c0.597,0,0.896,0.437,1.679,2.474c0,0,12.033,31.334,14.858,38.374c2.267,5.615,4.141,6.722,5.371,7.071
	c0.714,0.247,1.515,0.364,2.442,0.364c0.231,0,0.937,0,0.937,0.693c0,0.374-0.272,0.754-1.577,0.754l-10.286,0.003
	c-1.181-0.056-1.892-0.09-1.892-0.727c0-0.377,0.244-0.649,0.643-0.738c0.068-0.022,0.384-0.065,0.384-0.649
	c0-0.186-0.08-0.479-0.188-0.752c0,0-6.122-16.062-6.122-16.064H466.838z M314.08,292.601c3.784,0.068,5.383,0.582,6.348,2.028
	c0.655,1.005,0.847,1.438,1.051,1.896c0.154,0.414,0.38,0.841,0.921,0.841c0.304,0,0.628-0.229,0.628-0.878
	c0-0.721-1.462-6.842-1.462-6.842c-0.223-0.888-0.387-1.469-0.885-1.283l-0.804,0.315c-0.56,0.201-0.968,0.361-1.991,0.442H286.44
	c-1.027-0.081-1.435-0.241-1.994-0.442l-0.805-0.315c-0.497-0.188-0.655,0.396-0.884,1.28c0,0-1.462,6.124-1.462,6.845
	c0,0.646,0.324,0.878,0.63,0.878c0.538,0,0.771-0.427,0.922-0.844c0.2-0.455,0.393-0.888,1.051-1.893
	c0.962-1.446,2.563-1.963,6.348-2.028l8.979-0.009v26.475c0,6.044,0,11.263-0.322,13.919c-0.266,1.938-0.597,3.032-1.592,3.23
	c-0.689,0.151-1.379,0.244-1.852,0.244c-0.601,0-0.813,0.374-0.813,0.689c0,0.819,0.924,0.819,1.32,0.819h12.41
	c0.396,0,1.323,0,1.323-0.819c0-0.315-0.214-0.689-0.816-0.689c-0.464,0-1.153-0.093-1.833-0.244
	c-1.005-0.198-1.33-1.249-1.611-3.237c-0.313-2.649-0.313-7.868-0.313-13.912v-26.475L314.08,292.601z M126.7,289.107
	c-0.869,0-1.583,0-1.583,0.758c0,0.494,0.284,0.661,0.815,0.748c0.353,0.053,0.687,0.13,1.911,0.309
	c1.71,0.3,2.177,0.758,2.241,4.87l0.019,32.54c0,5.8-0.331,7.398-1.666,7.779c-0.829,0.274-1.874,0.37-2.522,0.37
	c-0.604,0-0.82,0.362-0.82,0.681c0,0.819,0.863,0.819,1.327,0.819h12.837c0.436,0,1.459,0,1.459-0.819
	c0-0.331-0.22-0.681-0.822-0.681c-0.17,0-1.731-0.019-3.102-0.374c-1.388-0.411-2.117-1.623-2.247-7.089
	c0,0-0.764-28.255-0.808-29.816c4.598,5.015,31.96,34.256,32.646,34.878c3.633,3.642,4.224,4.148,4.845,4.148
	c0.801,0,1.067-0.695,1.067-4.826l-0.063-37.246c0-3.803,0.272-4.968,2.103-5.346c0.742-0.188,1.163-0.188,1.466-0.188
	c0.739,0,1.005-0.405,1.005-0.748c0-0.754-0.943-0.754-1.45-0.754h-12.012c-0.59,0-1.579,0-1.579,0.754
	c0,0.495,0.277,0.748,0.815,0.748c0.421,0,1.874,0.056,3.055,0.31c1.713,0.448,2.174,1.633,2.238,5.744l-0.033,31.48
	c-1.036-1.139-33.777-36.938-33.777-36.938c-0.891-0.961-1.729-2.111-2.604-2.111H126.7z M79.155,369.418
	c-0.315-4.1-3.846-5.797-7.563-5.797c-6.87,0-9.801,5.605-9.801,11.845c0,6.307,2.9,11.854,9.801,11.854
	c3.657,0,7.154-2.174,7.816-5.989h-2.205c-0.572,2.836-3.088,4.097-5.611,4.097c-5.831,0-7.593-5.293-7.593-9.961
	c0-4.663,1.762-9.956,7.593-9.956c2.585,0,4.98,1.132,5.358,3.908H79.155z M90.69,370.55c5.043,0,7.374,4.224,7.374,8.385
	c0,4.158-2.331,8.382-7.374,8.382s-7.374-4.224-7.374-8.382C83.316,374.773,85.647,370.55,90.69,370.55 M96.017,378.935
	c0-2.928-1.515-6.65-5.327-6.65s-5.327,3.723-5.327,6.65c0,2.931,1.515,6.65,5.327,6.65S96.017,381.865,96.017,378.935
	 M104.742,377.738c0-2.839,1.423-5.454,4.539-5.454c2.585,0,4.161,1.61,4.161,4.35v10.212h1.893v-9.896
	c0-1.827-0.411-6.399-5.578-6.399c-2.05,0-3.846,0.915-4.949,2.869l-0.065-0.062l-0.093-2.332h-1.954
	c0.063,1.07,0.161,2.332,0.161,3.563v12.258h1.886V377.738z M122.766,377.738c0-2.839,1.423-5.454,4.539-5.454
	c2.585,0,4.162,1.61,4.162,4.35v10.212h1.892v-9.896c0-1.827-0.408-6.399-5.577-6.399c-2.05,0-3.847,0.915-4.95,2.869l-0.065-0.062
	l-0.092-2.332h-1.954c0.062,1.07,0.16,2.332,0.16,3.563v12.258h1.886V377.738z M139.818,379.377
	c0.064,3.373,1.604,6.208,5.481,6.208c2.238,0,4.1-1.608,4.572-3.781h1.985c-0.98,3.781-3.339,5.513-7.154,5.513
	c-4.728,0-6.935-4.063-6.935-8.382c0-4.285,2.365-8.385,7.062-8.385c5.293,0,7.216,3.88,7.216,8.827H139.818z M149.996,377.642
	c-0.22-3.054-1.858-5.357-5.136-5.357c-3.092,0-4.727,2.585-4.978,5.357H149.996z M169.25,375.88
	c-0.157-3.373-2.804-5.327-6.051-5.327c-4.692,0-7.061,4.097-7.061,8.382c0,4.322,2.207,8.382,6.935,8.382
	c3.596,0,5.673-1.794,6.177-5.42h-2.05c-0.157,2.176-1.854,3.688-4.315,3.688c-2.9,0-4.697-3.058-4.697-6.682
	c0-3.593,1.797-6.619,4.697-6.619c2.615,0,4.158,1.165,4.315,3.596H169.25z M175.394,382.623c0,2.143-0.223,4.696,3.784,4.696
	c0.631,0,1.323-0.127,1.923-0.284v-1.639c-0.507,0.157-1.075,0.191-1.642,0.191c-1.45,0-2.204-0.789-2.174-2.238v-10.593h3.593
	v-1.731h-3.593v-4.189l-1.892,0.816v3.373h-3.147v1.731h3.147V382.623z M209.032,386.846v-1.889h-11.445v-20.866h-2.047v22.755
	H209.032z M215.611,364.091h-2.204v2.362h2.204V364.091z M215.457,371.025h-1.889v15.82h1.889V371.025z M224.877,386.846v-14.089
	h3.592v-1.731h-3.592v-2.016c-0.096-2.272-0.034-3.562,2.557-3.562c0.374,0,0.782,0.062,1.162,0.127v-1.515
	c-0.565-0.127-1.199-0.35-1.799-0.35c-2.705,0-3.81,1.233-3.81,3.941v3.373h-3.185v1.731h3.185v14.089H224.877z M233.005,379.377
	c0.064,3.373,1.607,6.208,5.484,6.208c2.238,0,4.097-1.608,4.569-3.781h1.985c-0.978,3.781-3.339,5.513-7.154,5.513
	c-4.724,0-6.932-4.063-6.932-8.382c0-4.285,2.365-8.385,7.062-8.385c5.293,0,7.216,3.88,7.216,8.827H233.005z M243.189,377.642
	c-0.222-3.054-1.86-5.357-5.138-5.357c-3.089,0-4.728,2.585-4.981,5.357H243.189z M267.447,375.691
	c-0.191-2.585-1.515-3.404-3.753-3.404c-1.985,0-3.624,0.597-3.874,2.742h-2.016c0.473-3.249,2.896-4.477,5.921-4.477
	c3.499,0,5.673,1.607,5.611,5.231v7.5c-0.031,1.228,0.096,2.489,0.157,3.562h-1.954l-0.062-2.334h-0.065l-0.092,0.22
	c-0.696,1.326-2.808,2.588-4.95,2.588c-2.928,0-5.263-1.797-5.263-4.885c0-2.146,1.293-3.784,3.182-4.57
	c2.111-0.915,4.854-0.597,7.157-0.724V375.691z M259.158,382.435c0,2.143,1.639,3.153,3.562,3.153c4.128,0,4.916-3.404,4.728-6.715
	C264.766,378.965,259.158,378.461,259.158,382.435 M276.775,377.738c0-2.839,1.419-5.454,4.535-5.454c2.585,0,4.162,1.61,4.162,4.35
	v10.212h1.889v-9.896c0-1.827-0.408-6.399-5.574-6.399c-2.053,0-3.847,0.915-4.95,2.869l-0.062-0.062l-0.096-2.332h-1.954
	c0.064,1.07,0.154,2.332,0.154,3.563v12.258h1.896V377.738z M303.784,384.515l-0.064-0.126c-1.292,1.889-3.216,2.931-5.42,2.931
	c-4.696,0-6.492-4.478-6.492-8.446c0-4.1,1.796-8.32,6.492-8.32c2.111,0,4.316,1.011,5.42,2.869l0.064-0.068v-9.263h1.89v19.196
	c0,1.228,0.096,2.486,0.157,3.559h-1.954L303.784,384.515z M303.719,378.557c0-3.215-1.419-6.27-5.107-6.27
	c-3.59,0-4.758,3.336-4.758,6.363c0,2.934,0.853,6.935,4.477,6.935C302.46,385.585,303.719,382.149,303.719,378.557
	 M333.079,386.846v-1.889h-11.439v-20.866h-2.053v22.755H333.079z M337.772,379.377c0.064,3.373,1.607,6.208,5.484,6.208
	c2.238,0,4.097-1.608,4.569-3.781h1.988c-0.98,3.781-3.343,5.513-7.157,5.513c-4.728,0-6.932-4.063-6.932-8.382
	c0-4.285,2.365-8.385,7.058-8.385c5.294,0,7.22,3.88,7.22,8.827H337.772z M347.95,377.642c-0.217-3.054-1.858-5.357-5.133-5.357
	c-3.092,0-4.727,2.585-4.98,5.357H347.95z M363.961,375.691c-0.186-2.585-1.512-3.404-3.747-3.404c-1.985,0-3.63,0.597-3.88,2.742
	h-2.016c0.473-3.249,2.896-4.477,5.923-4.477c3.497,0,5.674,1.607,5.612,5.231v7.5c-0.034,1.228,0.092,2.489,0.157,3.562h-1.954
	l-0.068-2.334h-0.059l-0.096,0.22c-0.692,1.326-2.804,2.588-4.946,2.588c-2.935,0-5.263-1.797-5.263-4.885
	c0-2.146,1.293-3.784,3.182-4.57c2.115-0.915,4.854-0.597,7.154-0.724V375.691z M355.672,382.435c0,2.143,1.642,3.153,3.562,3.153
	c4.131,0,4.919-3.404,4.728-6.715C361.284,378.965,355.672,378.461,355.672,382.435 M373.478,377.33
	c0.064-3.027,1.546-5.046,4.35-5.046c0.381,0,0.788,0.096,1.166,0.127v-1.827c-0.631-0.034-1.259-0.063-1.89-0.034
	c-1.576,0.064-2.995,1.199-3.562,2.808h-0.064l-0.093-2.332h-1.954c0.062,1.07,0.188,2.332,0.157,3.563v12.258h1.89V377.33z
	 M384.982,377.738c0-2.839,1.419-5.454,4.539-5.454c2.581,0,4.158,1.61,4.158,4.35v10.212h1.896v-9.896
	c0-1.827-0.412-6.399-5.581-6.399c-2.05,0-3.843,0.915-4.946,2.869l-0.065-0.062l-0.093-2.332h-1.954
	c0.063,1.07,0.155,2.332,0.155,3.563v12.258h1.892V377.738z M403.165,364.091h-2.204v2.362h2.204V364.091z M403.006,371.025h-1.889
	v15.82h1.889V371.025z M410.507,377.738c0-2.839,1.419-5.454,4.542-5.454c2.581,0,4.155,1.61,4.155,4.35v10.212h1.896v-9.896
	c0-1.827-0.408-6.399-5.581-6.399c-2.047,0-3.843,0.915-4.946,2.869l-0.065-0.062l-0.093-2.332h-1.954
	c0.062,1.07,0.158,2.332,0.158,3.563v12.258h1.889V377.738z M437.761,371.029h1.954c-0.063,1.069-0.158,2.328-0.158,3.555v9.488
	c0,3.151,0.158,6.459-3.339,8.101c-1.262,0.597-2.111,0.724-3.59,0.724c-2.872,0-6.276-0.977-6.276-4.254h2.051
	c0.219,1.889,2.454,2.52,4.473,2.52c2.459,0,4.728-1.731,4.793-4.381v-2.965h-0.065c-0.915,1.864-3.085,2.965-5.135,2.965
	c-4.762,0-6.809-3.623-6.809-7.971c0-4.288,1.923-8.258,6.746-8.258c2.301,0,3.939,1.101,5.197,2.928l0.065-0.123L437.761,371.029z
	 M437.668,378.588c0-3.026-1.673-6.301-5.074-6.301c-3.438,0-4.888,3.463-4.888,6.363c0,2.899,1.481,6.399,4.95,6.399
	C436.28,385.05,437.668,381.677,437.668,378.588"/>
</svg>
